<?xml version="1.0" encoding="UTF-8"?>
<svg version="1.1" xmlns="http://www.w3.org/2000/svg" width="136" height="106">
<path d="M0 0 C44.88 0 89.76 0 136 0 C136 34.98 136 69.96 136 106 C91.12 106 46.24 106 0 106 C0 71.02 0 36.04 0 0 Z " fill="#231F1E" transform="translate(0,0)"/>
<path d="M0 0 C1.70678291 0.88229867 3.39332379 1.80554459 5.05078125 2.77734375 C7.4622634 4.16502967 7.4622634 4.16502967 11.27734375 3.87109375 C13.33972596 2.78553661 13.33972596 2.78553661 15.40234375 1.37109375 C20.46617052 -1.52962535 24.53498066 -2.2001116 30.27734375 -1.12890625 C36.87360218 0.96728083 41.06019998 3.83672505 44.4375 9.90625 C46.57904264 14.91646371 47.41995494 20.52394177 45.63165283 25.76257324 C42.92319215 31.36947297 39.33237621 35.34179463 34.88671875 39.65234375 C34.1821051 40.35129761 33.47749146 41.05025146 32.75152588 41.77038574 C30.51941859 43.98026915 28.27375363 46.17576054 26.02734375 48.37109375 C24.50298524 49.87536934 22.979538 51.38056897 21.45703125 52.88671875 C17.74093999 56.55892852 14.01364318 60.21945281 10.27734375 63.87109375 C7.37948767 62.5567949 5.2876697 61.13957243 3.02514648 58.90942383 C2.41448837 58.31152542 1.80383026 57.71362701 1.17466736 57.09761047 C0.52663651 56.45180527 -0.12139435 55.80600006 -0.7890625 55.140625 C-1.46436508 54.47197922 -2.13966766 53.80333344 -2.83543396 53.11442566 C-4.26100652 51.698968 -5.68388471 50.28079229 -7.10424805 48.86010742 C-9.27036868 46.69835152 -11.45194963 44.5530828 -13.63476562 42.40820312 C-15.02051146 41.02832744 -16.40530867 39.64749829 -17.7890625 38.265625 C-18.43911758 37.62994095 -19.08917267 36.9942569 -19.75892639 36.33930969 C-24.72341996 31.32453214 -27.41121812 27.14119409 -28.09765625 19.93359375 C-27.8410418 14.17650441 -26.11421125 9.5718832 -22.47265625 5.12109375 C-15.4319576 -0.63947787 -8.93807528 -3.70603121 0 0 Z " fill="#241F1F" transform="translate(57.72265625,16.12890625)"/>
<path d="M0 0 C1.70678291 0.88229867 3.39332379 1.80554459 5.05078125 2.77734375 C7.4622634 4.16502967 7.4622634 4.16502967 11.27734375 3.87109375 C13.33972596 2.78553661 13.33972596 2.78553661 15.40234375 1.37109375 C20.46617052 -1.52962535 24.53498066 -2.2001116 30.27734375 -1.12890625 C36.87360218 0.96728083 41.06019998 3.83672505 44.4375 9.90625 C46.57904264 14.91646371 47.41995494 20.52394177 45.63165283 25.76257324 C42.92319215 31.36947297 39.33237621 35.34179463 34.88671875 39.65234375 C34.1821051 40.35129761 33.47749146 41.05025146 32.75152588 41.77038574 C30.51941859 43.98026915 28.27375363 46.17576054 26.02734375 48.37109375 C24.50298524 49.87536934 22.979538 51.38056897 21.45703125 52.88671875 C17.74093999 56.55892852 14.01364318 60.21945281 10.27734375 63.87109375 C7.37948767 62.5567949 5.2876697 61.13957243 3.02514648 58.90942383 C2.41448837 58.31152542 1.80383026 57.71362701 1.17466736 57.09761047 C0.52663651 56.45180527 -0.12139435 55.80600006 -0.7890625 55.140625 C-1.46436508 54.47197922 -2.13966766 53.80333344 -2.83543396 53.11442566 C-4.26100652 51.698968 -5.68388471 50.28079229 -7.10424805 48.86010742 C-9.27036868 46.69835152 -11.45194963 44.5530828 -13.63476562 42.40820312 C-15.02051146 41.02832744 -16.40530867 39.64749829 -17.7890625 38.265625 C-18.43911758 37.62994095 -19.08917267 36.9942569 -19.75892639 36.33930969 C-24.72341996 31.32453214 -27.41121812 27.14119409 -28.09765625 19.93359375 C-27.8410418 14.17650441 -26.11421125 9.5718832 -22.47265625 5.12109375 C-15.4319576 -0.63947787 -8.93807528 -3.70603121 0 0 Z M-20.26953125 8.63671875 C-23.67878596 13.5016103 -24.48112852 16.99293368 -23.72265625 22.87109375 C-21.55518973 28.32459687 -18.20640386 31.78340952 -14.0859375 35.80078125 C-13.44649704 36.43597687 -12.80705658 37.07117249 -12.14823914 37.72561646 C-10.11751661 39.73963485 -8.07658218 41.74293102 -6.03515625 43.74609375 C-4.65100353 45.11518901 -3.26753234 46.48497366 -1.88476562 47.85546875 C1.49476722 51.20204202 4.88349424 54.53904279 8.27734375 57.87109375 C12.62866233 56.19295606 15.49284985 52.96139612 18.72265625 49.7265625 C19.33374237 49.11976151 19.94482849 48.51296051 20.57443237 47.88777161 C21.86287692 46.60506057 23.14872147 45.3197333 24.43212891 44.03198242 C26.39362149 42.06733006 28.36805304 40.11637052 30.34375 38.16601562 C31.59586266 36.91617611 32.8471914 35.66555065 34.09765625 34.4140625 C34.68725128 33.83367722 35.27684631 33.25329193 35.88430786 32.65531921 C40.12364928 28.36774941 42.0127625 25.17673037 42.71484375 19.05859375 C42.55523945 14.09208356 40.59630429 10.50346703 37.27734375 6.87109375 C32.24032502 3.04768508 27.47225808 2.08443796 21.27734375 2.87109375 C16.87765374 4.62738548 13.42390714 7.34694276 10.27734375 10.87109375 C7.79839419 9.76933839 5.95279915 8.60480075 3.83984375 6.87109375 C-0.47564121 3.50291036 -4.12590636 2.37840731 -9.671875 2.56640625 C-14.22478542 3.24283866 -17.31940676 5.26940494 -20.26953125 8.63671875 Z " fill="#B22928" transform="translate(57.72265625,16.12890625)"/>
</svg>
